<svg width="32" height="32" viewBox="0 0 32 32" fill="none" xmlns="http://www.w3.org/2000/svg">
<path d="M11.7733 24.2018C11.9216 24.2018 12.0419 24.1621 12.1337 24.0825C12.2254 24.0028 12.2713 23.8877 12.2713 23.7365V22.9611C12.2713 22.7702 12.2867 22.6032 12.3172 22.46C12.3476 22.3168 12.385 22.1775 12.4286 22.0425L14.8111 14.3213L17.0682 22.2333C17.1206 22.3969 17.1585 22.5239 17.1819 22.6147L17.1927 22.6568C17.2147 22.7484 17.2254 22.8498 17.2254 22.9611V23.7365C17.2254 23.8877 17.2713 24.0028 17.363 24.0825C17.4548 24.1621 17.5751 24.2018 17.7235 24.2018H22.73C22.87 24.2018 22.9875 24.1621 23.0839 24.0825C23.1798 24.0028 23.228 23.8877 23.228 23.7365V22.9611C23.228 22.8021 23.2388 22.6607 23.2608 22.5375C23.2828 22.414 23.324 22.2491 23.3853 22.0425L26.2949 10.5779C26.4348 10.0453 26.653 9.61754 26.9502 9.29544C27.2474 8.97333 27.5882 8.73687 27.9725 8.58561L28.287 8.45439C28.4443 8.38281 28.5557 8.31336 28.6212 8.24561C28.6868 8.17787 28.7195 8.0884 28.7195 7.97719C28.7195 7.83404 28.6648 7.71857 28.5557 7.63123C28.4466 7.54388 28.2828 7.5 28.0642 7.5H23.8965C23.6779 7.5 23.514 7.54388 23.405 7.63123C23.2959 7.71857 23.2412 7.83404 23.2412 7.97719C23.2412 8.0884 23.2692 8.17787 23.3263 8.24561C23.383 8.31336 23.4729 8.37471 23.595 8.43053L23.8834 8.52596C24.4076 8.70065 24.7591 8.9516 24.9384 9.27754C25.1177 9.60348 25.1504 9.98524 25.0367 10.4228L22.4459 20.4294L19.4142 9.43263C19.3519 9.18551 19.3346 8.9989 19.3627 8.87449L19.3748 8.83018C19.4184 8.70662 19.5232 8.6214 19.6894 8.57368L20.2661 8.43053C20.406 8.38281 20.5085 8.32103 20.574 8.24561C20.6399 8.16918 20.6747 8.07432 20.6723 7.97719C20.6723 7.82594 20.6199 7.70877 20.5151 7.62526C20.4102 7.54175 20.2483 7.5 20.0301 7.5H12.599C12.3893 7.5 12.2296 7.54175 12.1206 7.62526C12.0115 7.70877 11.9567 7.82594 11.9567 7.97719C11.9567 8.07263 11.9848 8.15401 12.0419 8.22175C12.0986 8.2895 12.1927 8.34702 12.3237 8.39474L12.8742 8.57368C12.9963 8.61331 13.0904 8.67722 13.156 8.76456C13.2215 8.8519 13.2936 9.02318 13.3722 9.27754L14.1918 12.1501L11.5926 20.4477L8.54915 9.40877C8.48034 9.2 8.45834 9.02617 8.48362 8.88769L8.49672 8.83018C8.54025 8.68318 8.64978 8.58561 8.82438 8.53789L9.5059 8.39474C9.74181 8.32316 9.85976 8.18 9.85976 7.96526C9.85976 7.82211 9.80734 7.70877 9.70249 7.62526C9.59764 7.54175 9.43569 7.5 9.21756 7.5H1.6291C1.4194 7.5 1.26212 7.54175 1.15727 7.62526C1.05242 7.70877 1 7.82211 1 7.96526C1 8.0607 1.02621 8.15018 1.07864 8.23368C1.13106 8.31719 1.21438 8.38281 1.32765 8.43053L1.90433 8.59754C2.07049 8.65293 2.19687 8.72877 2.2844 8.82421C2.37193 8.91965 2.44589 9.0709 2.50721 9.27754L6.17693 22.2333C6.22936 22.4165 6.26634 22.5533 6.28834 22.6449C6.31034 22.7365 6.3211 22.8418 6.3211 22.9611V23.7365C6.3211 23.8877 6.36931 24.0028 6.46527 24.0825C6.56122 24.1621 6.68386 24.2018 6.83224 24.2018H11.7733ZM28.0642 24.5C28.6236 24.5 29.1235 24.3764 29.5649 24.1302C30.0032 23.8864 30.3645 23.5431 30.6134 23.134C30.8708 22.7165 31 22.2649 31 21.78C31 21.287 30.8713 20.8375 30.6134 20.4319C30.3611 20.0314 30.0001 19.6966 29.5649 19.4596C29.1235 19.2168 28.6236 19.0958 28.0642 19.0958C27.5227 19.0958 27.0312 19.2172 26.5898 19.4596C26.1546 19.6966 25.7935 20.0314 25.5413 20.4319C25.2838 20.8375 25.1547 21.287 25.1547 21.78C25.1547 22.2653 25.2834 22.7165 25.5413 23.134C25.7987 23.5516 26.1484 23.8839 26.5898 24.1302C27.0312 24.3769 27.5227 24.5 28.0642 24.5Z" fill="#00001A"/>
</svg>
